# xmcd
#
# Track frame offsets: 
#        150
#        12638
#        27560
#        44953
#        62010
#        83609
#        101075
#        118297
#        132126
#        151391
#        169186
#        193988
#
# Disc length: 2921 seconds
#
# Revision: 2
# Processed by: cddbd v1.5.2PL0 Copyright (c) Steve Scherf et al.
# Submitted via: ExactAudioCopy v1.1
#
DISCID=af0b670c
DTITLE=Prince - Lotusflow3R
DYEAR=2009
DGENRE=Rock
TTITLE0=From The Lotus...
TTITLE1=Boom
TTITLE2=Crimson And Clover
TTITLE3=4Ever
TTITLE4=Colonized Mind
TTITLE5=Feel Good, Feel Better, Feel Wonderful
TTITLE6=Love Like Jazz
TTITLE7=77 Beverly Park
TTITLE8=Wall Of Berlin
TTITLE9=$
TTITLE10=Dreamer
TTITLE11=Back 2 The Lotus
EXTD=
EXTT0=
EXTT1=
EXTT2=
EXTT3=
EXTT4=
EXTT5=
EXTT6=
EXTT7=
EXTT8=
EXTT9=
EXTT10=
EXTT11=
PLAYORDER=
